<?xml version="1.0" encoding="UTF-8"?>
<svg version="1.1" xmlns="http://www.w3.org/2000/svg" width="696" height="477">
<path d="M0 0 C229.68 0 459.36 0 696 0 C696 157.41 696 314.82 696 477 C466.32 477 236.64 477 0 477 C0 319.59 0 162.18 0 0 Z " fill="#000000" transform="translate(0,0)"/>
<path d="M0 0 C3.09771142 2.08008471 6.08375956 4.29590956 9.05078125 6.55859375 C9.73398437 7.05617188 10.4171875 7.55375 11.12109375 8.06640625 C13.12340594 9.53253442 15.0873361 11.04075317 17.05078125 12.55859375 C18.60539062 13.74195313 18.60539062 13.74195313 20.19140625 14.94921875 C27.9822908 20.92842215 35.35460309 27.21854788 42.44189453 34.01708984 C43.51328342 35.04360721 44.58979635 36.06480348 45.67138672 37.08056641 C52.98068862 43.95513062 59.24630043 51.18884036 65.23510742 59.23852539 C79.16728271 77.86608632 95.77803173 93.80969737 119.55078125 97.80859375 C142.37672176 100.56558983 163.96165722 96.26933807 186.22146606 91.58905029 C242.79855437 79.72229345 242.79855437 79.72229345 264.05078125 90.55859375 C267.07084465 93.28401682 267.92541331 94.66310846 268.48828125 98.68359375 C267.9958737 101.9194148 267.5779556 102.60727617 265.05078125 104.55859375 C263.07836914 104.92749023 263.07836914 104.92749023 260.7734375 104.9296875 C259.88551514 104.94435059 258.99759277 104.95901367 258.08276367 104.97412109 C257.10283447 104.98137207 256.12290527 104.98862305 255.11328125 104.99609375 C244.24466478 105.26182182 233.5318365 106.20700594 222.73828125 107.43359375 C221.9494455 107.52293182 221.16060974 107.6122699 220.34786987 107.70431519 C212.09522554 108.64773765 203.86344904 109.64624812 195.67578125 111.05859375 C158.62031406 117.40879811 114.79463425 124.06867469 82.02856445 101.23657227 C74.69836526 95.95663924 68.8605756 90.44672114 63.05078125 83.55859375 C62.15593687 82.51347535 61.26002211 81.46927287 60.36328125 80.42578125 C51.91977041 70.59742261 51.91977041 70.59742261 47.99609375 65.9296875 C38.53545323 54.70839327 28.5711986 44.71291972 17.05078125 35.55859375 C15.17492968 33.9971162 13.29992516 32.43462049 11.42578125 30.87109375 C7.59034313 27.7334998 3.70612837 24.88065547 -0.46484375 22.2109375 C-2.96080407 20.55088842 -5.35270567 18.77700212 -7.75415039 16.98413086 C-13.37581419 12.82430268 -19.07316873 9.20578045 -25.32421875 6.05859375 C-25.96560791 5.73262207 -26.60699707 5.40665039 -27.26782227 5.07080078 C-42.50684308 -2.3255605 -55.30317991 1.07706493 -70.74194336 5.89428711 C-77.07063986 7.79898605 -82.9767615 7.77930426 -89.57421875 7.80859375 C-90.71246094 7.82921875 -91.85070312 7.84984375 -93.0234375 7.87109375 C-108.31960086 7.94134019 -120.0675281 2.50421963 -131.3671875 -7.70703125 C-132.94921875 -9.44140625 -132.94921875 -9.44140625 -132.94921875 -11.44140625 C-129.82373034 -10.94991723 -126.74872765 -10.39539581 -123.6640625 -9.6875 C-102.96334155 -5.25621847 -82.01212723 -5.64915287 -62.02441406 -12.71044922 C-39.72130303 -20.56639209 -19.27414469 -12.3320368 0 0 Z " fill="#166334" transform="translate(328.94921875,320.44140625)"/>
<path d="M0 0 C20.13 0 40.26 0 61 0 C61 5.94 61 11.88 61 18 C60.34 18 59.68 18 59 18 C58.91363281 17.37351563 58.82726562 16.74703125 58.73828125 16.1015625 C58.59777344 15.28429687 58.45726562 14.46703125 58.3125 13.625 C58.18488281 12.81289062 58.05726563 12.00078125 57.92578125 11.1640625 C57.18914846 8.81381388 57.18914846 8.81381388 54.86914062 7.87695312 C51.49859489 6.84674548 48.69145294 6.77364359 45.16796875 6.8046875 C43.42036255 6.81218018 43.42036255 6.81218018 41.63745117 6.81982422 C40.16896729 6.83803223 38.7004834 6.85624023 37.1875 6.875 C32.505625 6.91625 27.82375 6.9575 23 7 C23 16.9 23 26.8 23 37 C27.888125 37.0825 32.77625 37.165 37.8125 37.25 C39.35139893 37.28641602 40.89029785 37.32283203 42.47583008 37.36035156 C43.68650146 37.3703418 44.89717285 37.38033203 46.14453125 37.390625 C47.38565674 37.41157227 48.62678223 37.43251953 49.90551758 37.45410156 C53.0707467 37.30393101 53.0707467 37.30393101 54.88549805 35.11621094 C55.96805608 33.06065495 56.59263819 31.28122614 57 29 C57.66 29 58.32 29 59 29 C59 36.92 59 44.84 59 53 C58.34 53 57.68 53 57 53 C56.525625 51.865625 56.05125 50.73125 55.5625 49.5625 C54.36377917 46.24259834 54.36377917 46.24259834 53 45 C50.78144736 44.91216458 48.56011504 44.89305391 46.33984375 44.90234375 C45.67537735 44.9037587 45.01091095 44.90517365 44.3263092 44.90663147 C42.19666101 44.91224482 40.06711661 44.92479946 37.9375 44.9375 C36.49674631 44.94251329 35.05599097 44.94707649 33.61523438 44.95117188 C30.07678898 44.96221855 26.53840461 44.97949208 23 45 C22.92574857 49.76884567 22.87135064 54.5373536 22.83520508 59.30664062 C22.82013435 60.92844506 22.79967407 62.55020884 22.77368164 64.171875 C22.73722171 66.50531046 22.72025686 68.83820631 22.70703125 71.171875 C22.69154739 71.89493835 22.67606354 72.61800171 22.66011047 73.36297607 C22.65906173 76.51210195 22.80605637 78.6586042 24.37695312 81.42382812 C26.37126073 83.3605384 28.02859577 83.97930312 30.6875 84.75 C31.89986328 85.11351562 31.89986328 85.11351562 33.13671875 85.484375 C33.75160156 85.65453125 34.36648437 85.8246875 35 86 C35 86.99 35 87.98 35 89 C23.45 89 11.9 89 0 89 C-0.16567163 96.47987493 -0.16567163 96.47987493 -0.16796875 103.953125 C-0.16047607 104.79520508 -0.1529834 105.63728516 -0.14526367 106.50488281 C0.11953246 111.05314583 1.17486753 114.84919706 3 119 C3.26345215 119.62519531 3.5269043 120.25039063 3.79833984 120.89453125 C7.47957074 129.62573256 11.51193726 138.16633321 15.79003906 146.61889648 C45.05309775 204.47610371 45.05309775 204.47610371 43 217 C40.8222058 221.54950158 38.29275926 225.03043055 34.25 228.0625 C29.79023479 229.34897073 25.60752721 229.24585619 21 229 C21 228.34 21 227.68 21 227 C20.1028125 226.62875 20.1028125 226.62875 19.1875 226.25 C16.53192646 224.7325294 15.48539249 223.68785308 14 221 C13.07924163 217.52079852 12.37088252 214.29755481 14 210.9375 C17.12363049 209.47329821 19.71302493 210.31779763 23 211 C25.06749107 207.8987634 25.54083831 204.83394289 25.4453125 201.12890625 C24.74838408 197.79709933 22.84353987 195.75369806 20.70703125 193.171875 C15.64224847 186.72789508 12.42351014 178.87818634 9.03198242 171.47143555 C5.65169531 164.13853276 1.99744805 156.94287197 -1.64892578 149.73950195 C-6.02311402 141.06525207 -10.21858572 132.33141015 -13.6875 123.25 C-14.08324219 122.22390625 -14.47898437 121.1978125 -14.88671875 120.140625 C-19.27251051 107.76807562 -19.56619846 95.35443306 -15 83 C-14.59974609 81.86884766 -14.59974609 81.86884766 -14.19140625 80.71484375 C-9.76881597 69.56991625 -2.31850202 61.06255422 8 55 C8.66 55 9.32 55 10 55 C9.67 38.5 9.34 22 9 5 C6.03 4.34 3.06 3.68 0 3 C0 2.01 0 1.02 0 0 Z " fill="#176234" transform="translate(99,207)"/>
<path d="M0 0 C0.96623291 -0.00926514 1.93246582 -0.01853027 2.92797852 -0.02807617 C3.82701904 -0.02396729 4.72605957 -0.0198584 5.65234375 -0.015625 C6.85685181 -0.01224121 6.85685181 -0.01224121 8.08569336 -0.00878906 C10.0625 0.25 10.0625 0.25 12.0625 2.25 C12 4.6875 12 4.6875 11.0625 7.25 C6.71912807 10.62817817 1.89872136 11.3259609 -3.375 12.3125 C-8.71511464 13.34087474 -13.78454984 14.4797932 -18.9375 16.25 C-21.09798416 16.73664371 -23.26530896 17.19360692 -25.4375 17.625 C-30.25942428 18.62872692 -34.96578579 19.78745683 -39.6875 21.1875 C-44.94769989 22.73978616 -50.20211225 23.99254829 -55.5625 25.125 C-92.15393902 33.00449183 -127.93069613 48.00444502 -159.9375 67.25 C-161.91517289 68.41959503 -163.89304081 69.58886034 -165.87109375 70.7578125 C-177.61468285 77.75186622 -188.91256091 85.17618097 -199.9375 93.25 C-201.19751041 94.16201986 -202.457922 95.07348575 -203.71875 95.984375 C-216.40848319 105.18625766 -228.98933847 114.58110538 -240.93359375 124.73828125 C-242.9375 126.25 -242.9375 126.25 -244.9375 126.25 C-243.57507574 123.18286756 -242.04050295 121.13159707 -239.625 118.8125 C-238.76455078 117.97912109 -238.76455078 117.97912109 -237.88671875 117.12890625 C-236.92185547 116.19884766 -236.92185547 116.19884766 -235.9375 115.25 C-233.34103344 112.67058741 -230.76576552 110.07383684 -228.2109375 107.453125 C-222.58966939 101.70721894 -216.86291108 96.37869009 -210.5546875 91.375 C-208.07498696 89.3616312 -205.76260048 87.25082986 -203.4375 85.0625 C-182.69427041 66.2259381 -157.39665424 51.60819469 -132.73828125 38.52758789 C-130.67002264 37.42820995 -128.60846287 36.31690473 -126.546875 35.20507812 C-119.1828356 31.26786568 -111.92823154 27.78264488 -103.9375 25.25 C-133.22685741 30.62782944 -162.95900258 36.31723806 -191.32006836 45.50512695 C-197.45076451 47.47285844 -203.63862837 48.92335409 -209.9375 50.25 C-208.9375 47.25 -208.9375 47.25 -206.7421875 45.85888672 C-205.77539062 45.38725098 -204.80859375 44.91561523 -203.8125 44.4296875 C-202.72541748 43.89851318 -201.63833496 43.36733887 -200.51831055 42.82006836 C-199.33664307 42.2606958 -198.15497559 41.70132324 -196.9375 41.125 C-196.33636383 40.8378714 -195.73522766 40.5507428 -195.11587524 40.25491333 C-178.34079101 32.26663249 -160.90917197 25.96626536 -142.9375 21.25 C-141.6125414 20.86320246 -140.28836795 20.47370884 -138.96484375 20.08203125 C-115.38865842 13.27688864 -90.20106505 9.9808244 -65.71923828 8.91552734 C-59.11331402 8.62520241 -53.03049504 8.05460652 -46.68359375 6.07421875 C-31.6167356 1.55201808 -15.65792842 0.09543638 0 0 Z " fill="#176134" transform="translate(534.9375,48.75)"/>
<path d="M0 0 C6.6 0 13.2 0 20 0 C26.33358515 12.23533494 31.87098178 24.79057142 37.4140625 37.40039062 C39.0068975 41.01565528 40.61134976 44.62556544 42.21875 48.234375 C43.2293029 50.51035618 44.23972472 52.78639557 45.25 55.0625 C45.72791992 56.13282471 46.20583984 57.20314941 46.69824219 58.3059082 C47.35034668 59.78063599 47.35034668 59.78063599 48.015625 61.28515625 C48.40008789 62.15019775 48.78455078 63.01523926 49.18066406 63.90649414 C50 66 50 66 50 68 C53.24548929 65.31894363 54.6624432 61.82584047 56.3359375 58.0703125 C56.65196426 57.37544739 56.96799103 56.68058228 57.29359436 55.96466064 C58.32719581 53.68764013 59.35110719 51.40640045 60.375 49.125 C61.0867469 47.55263715 61.79907315 45.98053643 62.51196289 44.40869141 C66.00112649 36.70471494 69.45684378 28.98572327 72.91015625 21.265625 C73.36370483 20.25210464 73.36370483 20.25210464 73.82641602 19.21810913 C75.2558437 16.02256433 76.68193174 12.82561494 78.10107422 9.62548828 C78.60268066 8.49868652 79.10428711 7.37188477 79.62109375 6.2109375 C80.0586499 5.22399902 80.49620605 4.23706055 80.94702148 3.22021484 C82 1 82 1 83 0 C84.4887186 -0.08669432 85.981445 -0.10703494 87.47265625 -0.09765625 C88.37177734 -0.09443359 89.27089844 -0.09121094 90.19726562 -0.08789062 C91.61555664 -0.07532227 91.61555664 -0.07532227 93.0625 -0.0625 C94.4865918 -0.05573242 94.4865918 -0.05573242 95.93945312 -0.04882812 C98.29303065 -0.0370011 100.64648477 -0.02052025 103 0 C103 0.99 103 1.98 103 3 C101.865625 3.474375 100.73125 3.94875 99.5625 4.4375 C96.24259834 5.63622083 96.24259834 5.63622083 95 7 C94.88617167 9.44181383 94.84722632 11.84641538 94.859375 14.2890625 C94.86193298 15.07616608 94.86449097 15.86326965 94.86712646 16.67422485 C94.9592223 27.67185048 95.4952424 38.65501964 96.06201172 49.63671875 C96.18857716 52.15356293 96.3065794 54.67085069 96.41650391 57.18847656 C96.57710293 60.86377809 96.76220506 64.53710144 96.953125 68.2109375 C96.9981012 69.33688324 97.04307739 70.46282898 97.0894165 71.62289429 C97.14917664 72.66563507 97.20893677 73.70837585 97.27050781 74.78271484 C97.31492004 75.6966098 97.35933228 76.61050476 97.40509033 77.55209351 C98.17164667 80.70628369 99.52755559 81.95678084 102 84 C104.09989111 84.88246003 104.09989111 84.88246003 106.25 85.25 C108.10625 85.62125 108.10625 85.62125 110 86 C110 86.99 110 87.98 110 89 C97.79 89 85.58 89 73 89 C73 88.01 73 87.02 73 86 C73.71027344 85.86722656 74.42054688 85.73445313 75.15234375 85.59765625 C76.53099609 85.33275391 76.53099609 85.33275391 77.9375 85.0625 C78.85402344 84.88847656 79.77054688 84.71445312 80.71484375 84.53515625 C82.95289844 84.22285012 82.95289844 84.22285012 84 83 C84.04177397 81.32465399 84.00977661 79.64742849 83.94921875 77.97265625 C83.91111084 76.8856543 83.87300293 75.79865234 83.83374023 74.67871094 C83.78548096 73.48536133 83.73722168 72.29201172 83.6875 71.0625 C83.61801147 69.22800293 83.61801147 69.22800293 83.54711914 67.35644531 C82.92650138 51.89231601 81.96781796 36.4456421 81 21 C80.4440918 22.23242432 80.4440918 22.23242432 79.87695312 23.48974609 C70.1224119 45.09121942 60.14879454 66.58103052 50 88 C48.68 88 47.36 88 46 88 C45.72027344 87.36537842 45.44054687 86.73075684 45.15234375 86.0769043 C37.98243522 69.83077917 30.67435625 53.65322438 23.2578125 37.51831055 C22.92319 36.78927017 22.5885675 36.0602298 22.24380493 35.30909729 C21.61678131 33.94323014 20.98873943 32.57782978 20.35946655 31.21299744 C18.81222312 27.84178471 17.34167767 24.45838217 16 21 C14.88772811 27.4604459 14.70750424 33.89343118 14.5 40.4375 C14.11117928 52.65655099 14.11117928 52.65655099 13.47265625 57.03515625 C12.83678064 62.3691541 12.8938494 67.63433387 12.9375 73 C12.94201172 74.06089844 12.94652344 75.12179687 12.95117188 76.21484375 C12.96286141 78.80992055 12.98079335 81.40496795 13 84 C16.3 84.66 19.6 85.32 23 86 C23 86.99 23 87.98 23 89 C13.1 89 3.2 89 -7 89 C-7 88.01 -7 87.02 -7 86 C-5.3603125 85.5978125 -5.3603125 85.5978125 -3.6875 85.1875 C0.34529711 83.91829932 0.34529711 83.91829932 3 81 C5.46691944 72.44074842 5.59252162 63.0307959 6.125 54.1875 C6.16735779 53.50977539 6.20971558 52.83205078 6.25335693 52.13378906 C7.20014351 36.75578848 7.20907769 21.40098445 7 6 C4.69 5.01 2.38 4.02 0 3 C0 2.01 0 1.02 0 0 Z " fill="#F6F6F6" transform="translate(511,207)"/>
<path d="M0 0 C9.58728809 1.68633549 18.54430265 6.22497647 27.25 10.38476562 C38.95486929 15.95785601 50.13225801 20.47716896 62.875 23.00976562 C63.93315918 23.22286377 64.99131836 23.43596191 66.08154297 23.65551758 C84.3184792 27.25092636 102.66960406 28.25994812 121.1875 29.38476562 C96.18851916 42.43878376 55.37274093 38.61381987 29.1875 31.38476562 C26.81455777 30.45560507 24.5105965 29.43645748 22.1875 28.38476562 C24.09837788 56.61682109 27.28307336 84.35444364 37.85546875 110.77148438 C41.12293187 119.63483741 43.61725043 129.81658755 39.6875 138.82226562 C30.57370377 148.16390676 21.27988635 151.26132244 8.4296875 151.58789062 C6.30733895 151.60898229 4.1849284 151.62447506 2.0625 151.63476562 C0.99128906 151.65539062 -0.07992187 151.67601562 -1.18359375 151.69726562 C-2.21871094 151.70242188 -3.25382812 151.70757812 -4.3203125 151.71289062 C-5.25504395 151.72223633 -6.18977539 151.73158203 -7.15283203 151.74121094 C-10.36604481 151.31058025 -12.23947195 150.33703418 -14.8125 148.38476562 C-15.47986376 144.89964374 -15.35230342 143.19227644 -13.37109375 140.22851562 C-9.52696276 137.45839375 -5.93838008 137.83721262 -1.3125 137.82226562 C11.92294592 137.861771 11.92294592 137.861771 23.4375 132.40429688 C27.13759676 128.13431914 26.48364736 123.80298324 26.1875 118.38476562 C25.74460629 115.44675139 25.06224715 112.58648978 24.375 109.69726562 C18.50443983 82.19017311 18.78051767 54.35384387 19.1875 26.38476562 C18.03652832 26.17895874 18.03652832 26.17895874 16.86230469 25.96899414 C8.12796379 24.06124699 -1.02748326 17.06816144 -6.8125 10.38476562 C-8.19648732 6.78639858 -8.28732556 5.51247633 -6.8125 2.00976562 C-4.49215894 0.12448852 -2.96687097 -0.18233895 0 0 Z " fill="#186235" transform="translate(124.8125,301.615234375)"/>
<path d="M0 0 C1.9765625 1.3359375 1.9765625 1.3359375 3.375 2.625 C3.375 3.285 3.375 3.945 3.375 4.625 C2.39660156 4.72296875 1.41820312 4.8209375 0.41015625 4.921875 C-15.92980126 6.7856263 -27.38276672 13.70864036 -39.625 24.625 C-40.17414063 25.36492187 -40.72328125 26.10484375 -41.2890625 26.8671875 C-41.72992188 27.44726562 -42.17078125 28.02734375 -42.625 28.625 C-43.285 28.625 -43.945 28.625 -44.625 28.625 C-44.89747559 29.21716309 -45.16995117 29.80932617 -45.45068359 30.41943359 C-46.59356808 32.5659655 -47.78972251 34.11709255 -49.4140625 35.9140625 C-62.11893202 50.40639699 -70.52168052 67.1254669 -75.625 85.625 C-70.675 85.625 -65.725 85.625 -60.625 85.625 C-60.625 86.615 -60.625 87.605 -60.625 88.625 C-61.19089844 88.74617188 -61.75679687 88.86734375 -62.33984375 88.9921875 C-63.07332031 89.15976563 -63.80679688 89.32734375 -64.5625 89.5 C-65.29339844 89.66242188 -66.02429688 89.82484375 -66.77734375 89.9921875 C-68.83200294 90.45461523 -68.83200294 90.45461523 -69.625 92.625 C-69.74303121 94.9776549 -69.79490252 97.33370715 -69.81787109 99.68920898 C-69.82604858 100.41619995 -69.83422607 101.14319092 -69.84265137 101.89221191 C-69.86749787 104.30183077 -69.88401676 106.71139087 -69.8984375 109.12109375 C-69.90376118 109.94295732 -69.90908485 110.7648209 -69.91456985 111.61158943 C-69.94129448 115.95923048 -69.96067408 120.30684283 -69.97509766 124.65454102 C-69.99177068 129.15198689 -70.0365717 133.64870353 -70.0874691 138.14587307 C-70.12106454 141.59878923 -70.13266636 145.05153035 -70.13832474 148.5045948 C-70.14505552 150.16286881 -70.16032489 151.82113058 -70.18421555 153.47924614 C-70.2157161 155.79724187 -70.21592833 158.11324436 -70.20849609 160.43139648 C-70.21658295 161.75106918 -70.2246698 163.07074188 -70.23300171 164.43040466 C-69.95350322 167.78798941 -69.95350322 167.78798941 -67.23306274 169.53163147 C-65.01584376 170.46114801 -62.98470441 171.1880177 -60.625 171.625 C-60.625 172.615 -60.625 173.605 -60.625 174.625 C-71.185 174.625 -81.745 174.625 -92.625 174.625 C-92.625 173.635 -92.625 172.645 -92.625 171.625 C-90.954375 171.2228125 -90.954375 171.2228125 -89.25 170.8125 C-85.40659049 169.96690981 -85.40659049 169.96690981 -83.625 166.625 C-83.31206358 163.3480983 -83.31206358 163.3480983 -83.3503418 159.5390625 C-83.34523087 158.82167908 -83.34011993 158.10429565 -83.33485413 157.36517334 C-83.32095149 154.99336409 -83.32191516 152.62184515 -83.32421875 150.25 C-83.32033258 148.6023752 -83.31599807 146.9547514 -83.31123352 145.30712891 C-83.30377017 141.8538081 -83.30406369 138.40058954 -83.30932617 134.94726562 C-83.31512524 130.51840264 -83.29818004 126.08995724 -83.2749815 121.66116333 C-83.2602628 118.25884549 -83.25936982 114.8566287 -83.26249123 111.45428467 C-83.26197721 109.82117891 -83.25672449 108.18806762 -83.24667931 106.55499268 C-83.23436603 104.2733632 -83.24107472 101.99255348 -83.25268555 99.7109375 C-83.25205612 98.4120459 -83.2514267 97.1131543 -83.2507782 95.77490234 C-83.36825956 92.67547325 -83.36825956 92.67547325 -84.9490509 90.72509766 C-87.37996297 89.12944021 -89.77299851 88.94188905 -92.625 88.625 C-92.625 87.635 -92.625 86.645 -92.625 85.625 C-91.965 85.625 -91.305 85.625 -90.625 85.625 C-90.48964844 84.944375 -90.35429687 84.26375 -90.21484375 83.5625 C-82.97981649 50.98321557 -58.99364218 23.84127789 -31.625 5.875 C-21.9613431 -0.27129849 -11.01391963 -6.5346671 0 0 Z " fill="#176235" transform="translate(265.625,121.375)"/>
<path d="M0 0 C4.26835451 1.17534573 4.26835451 1.17534573 10.76953125 1.97265625 C10.76953125 9.23265625 10.76953125 16.49265625 10.76953125 23.97265625 C10.10953125 23.97265625 9.44953125 23.97265625 8.76953125 23.97265625 C8.51300781 23.19921875 8.25648438 22.42578125 7.9921875 21.62890625 C5.16681954 13.94238332 1.86922569 8.33997618 -5.23046875 3.97265625 C-13.54481943 1.00603347 -23.83637307 0.15904878 -32.16796875 3.53515625 C-40.27541673 7.90187964 -45.4545952 13.64154736 -49.23046875 21.97265625 C-49.62363281 22.771875 -50.01679688 23.57109375 -50.421875 24.39453125 C-55.37253815 35.77933152 -54.62400084 49.51126818 -50.23046875 60.97265625 C-49.97523438 61.66359375 -49.72 62.35453125 -49.45703125 63.06640625 C-46.02223088 71.00741261 -39.80456701 78.0378382 -32.16796875 82.09765625 C-24.79618754 85.0111169 -15.27343247 85.85266523 -7.73535156 83.04248047 C-5.53731232 82.06982446 -3.37538221 81.05687441 -1.23046875 79.97265625 C-1.20147276 76.20183903 -1.18367146 72.43105042 -1.16796875 68.66015625 C-1.15540039 67.05237305 -1.15540039 67.05237305 -1.14257812 65.41210938 C-1.13774414 63.87006836 -1.13774414 63.87006836 -1.1328125 62.296875 C-1.12495728 60.87507935 -1.12495728 60.87507935 -1.11694336 59.42456055 C-1.12548021 56.83426944 -1.12548021 56.83426944 -2.23046875 53.97265625 C-5.48421799 52.93524743 -5.48421799 52.93524743 -9.29296875 52.28515625 C-11.22849609 51.90810547 -11.22849609 51.90810547 -13.203125 51.5234375 C-14.20214844 51.34167969 -15.20117188 51.15992188 -16.23046875 50.97265625 C-16.23046875 50.31265625 -16.23046875 49.65265625 -16.23046875 48.97265625 C-3.36046875 48.97265625 9.50953125 48.97265625 22.76953125 48.97265625 C22.43953125 49.96265625 22.10953125 50.95265625 21.76953125 51.97265625 C19.46700642 53.04168564 17.13232865 54.04441442 14.76953125 54.97265625 C13.0244651 56.7177224 13.53670341 59.16304768 13.453125 61.5390625 C13.41123047 62.66376953 13.36933594 63.78847656 13.32617188 64.94726562 C13.28685547 66.13126953 13.24753906 67.31527344 13.20703125 68.53515625 C13.14225586 70.31696289 13.14225586 70.31696289 13.07617188 72.13476562 C12.96969579 75.08060409 12.86768284 78.02653055 12.76953125 80.97265625 C11.20229784 81.60534436 9.63447189 82.23656481 8.06640625 82.8671875 C7.19338867 83.21885986 6.32037109 83.57053223 5.42089844 83.93286133 C-8.04320374 89.21312018 -25.0388836 92.25543818 -39.04296875 87.00390625 C-50.5096872 81.59816755 -59.27160194 74.64866091 -64.2578125 62.74609375 C-68.42770265 50.85604553 -69.7841058 36.08552552 -64.48046875 24.28125 C-64.06796875 23.51941406 -63.65546875 22.75757813 -63.23046875 21.97265625 C-62.81796875 21.20050781 -62.40546875 20.42835938 -61.98046875 19.6328125 C-55.46061882 8.79726646 -45.25281253 1.44111068 -33.390625 -2.6640625 C-22.09314281 -4.56400074 -10.92032443 -2.97238802 0 0 Z " fill="#F7F8F7" transform="translate(380.23046875,208.02734375)"/>
<path d="M0 0 C12.54 0 25.08 0 38 0 C38 0.99 38 1.98 38 3 C36.329375 3.185625 36.329375 3.185625 34.625 3.375 C30.96896323 3.6465813 30.96896323 3.6465813 29 6 C29.34809778 9.64481077 30.51845886 12.27233849 32.40625 15.37109375 C32.89899414 16.18674805 33.39173828 17.00240234 33.89941406 17.84277344 C34.42760742 18.6990332 34.95580078 19.55529297 35.5 20.4375 C36.03592773 21.31825195 36.57185547 22.19900391 37.12402344 23.10644531 C41.63027646 30.48104499 46.26156996 37.77269762 51 45 C53.88599225 42.44236075 55.56790067 39.53108637 57.46875 36.1953125 C58.12230469 35.05449219 58.77585937 33.91367188 59.44921875 32.73828125 C60.13297292 31.53394523 60.81656524 30.32951731 61.5 29.125 C62.18314088 27.92812682 62.86673022 26.73150949 63.55078125 25.53515625 C64.8129189 23.32703773 66.07291542 21.117693 67.33007812 18.90673828 C68.41724139 17.01437486 69.54088479 15.14235995 70.70507812 13.29638672 C72.19846017 10.64805499 72.2565095 8.9926108 72 6 C69.36 5.01 66.72 4.02 64 3 C64 2.01 64 1.02 64 0 C74.23 0 84.46 0 95 0 C95 0.99 95 1.98 95 3 C94.12988281 3.20302734 94.12988281 3.20302734 93.2421875 3.41015625 C92.46101563 3.62542969 91.67984375 3.84070313 90.875 4.0625 C89.72644531 4.35833984 89.72644531 4.35833984 88.5546875 4.66015625 C79.68479918 9.31210074 75.29963201 20.78267 70.63452148 29.11962891 C64.98906177 39.18412357 64.98906177 39.18412357 62.24609375 42.83203125 C54.64193667 53.42887984 56.01458692 65.75051456 56.30541992 78.3112793 C56.75660842 81.18804973 56.75660842 81.18804973 59.30981445 82.79614258 C62.47408145 84.21215134 65.64403108 85.14455694 69 86 C68.505 87.485 68.505 87.485 68 89 C55.79 89 43.58 89 31 89 C31.33 87.68 31.66 86.36 32 85 C32.63808594 84.87882812 33.27617187 84.75765625 33.93359375 84.6328125 C34.75988281 84.46523438 35.58617187 84.29765625 36.4375 84.125 C37.26121094 83.96257812 38.08492188 83.80015625 38.93359375 83.6328125 C39.95646484 83.31957031 39.95646484 83.31957031 41 83 C44.90680762 75.18638476 43.54938205 62.28791116 42 54 C38.95740146 46.41923025 33.92713431 40.07173048 28.97119141 33.6484375 C25.95578483 29.59702178 23.42230401 25.29265537 20.875 20.9375 C14.85538271 10.49914648 14.85538271 10.49914648 5 4 C2.26427415 3.30092586 2.26427415 3.30092586 0 3 C0 2.01 0 1.02 0 0 Z " fill="#F3F3F3" transform="translate(407,207)"/>
<path d="M0 0 C20.13 0 40.26 0 61 0 C61 5.94 61 11.88 61 18 C60.34 18 59.68 18 59 18 C58.91363281 17.37351563 58.82726562 16.74703125 58.73828125 16.1015625 C58.59777344 15.28429687 58.45726562 14.46703125 58.3125 13.625 C58.18488281 12.81289062 58.05726563 12.00078125 57.92578125 11.1640625 C57.18914846 8.81381388 57.18914846 8.81381388 54.86914062 7.87695312 C51.49859489 6.84674548 48.69145294 6.77364359 45.16796875 6.8046875 C43.42036255 6.81218018 43.42036255 6.81218018 41.63745117 6.81982422 C40.16896729 6.83803223 38.7004834 6.85624023 37.1875 6.875 C32.505625 6.91625 27.82375 6.9575 23 7 C23 16.9 23 26.8 23 37 C27.888125 37.0825 32.77625 37.165 37.8125 37.25 C39.35139893 37.28641602 40.89029785 37.32283203 42.47583008 37.36035156 C43.68650146 37.3703418 44.89717285 37.38033203 46.14453125 37.390625 C47.38565674 37.41157227 48.62678223 37.43251953 49.90551758 37.45410156 C53.0707467 37.30393101 53.0707467 37.30393101 54.88549805 35.11621094 C55.96805608 33.06065495 56.59263819 31.28122614 57 29 C57.66 29 58.32 29 59 29 C59 36.92 59 44.84 59 53 C58.34 53 57.68 53 57 53 C56.525625 51.865625 56.05125 50.73125 55.5625 49.5625 C54.36377917 46.24259834 54.36377917 46.24259834 53 45 C50.78144736 44.91216458 48.56011504 44.89305391 46.33984375 44.90234375 C45.67537735 44.9037587 45.01091095 44.90517365 44.3263092 44.90663147 C42.19666101 44.91224482 40.06711661 44.92479946 37.9375 44.9375 C36.49674631 44.94251329 35.05599097 44.94707649 33.61523438 44.95117188 C30.07678898 44.96221855 26.53840461 44.97949208 23 45 C22.92574857 49.76884567 22.87135064 54.5373536 22.83520508 59.30664062 C22.82013435 60.92844506 22.79967407 62.55020884 22.77368164 64.171875 C22.73722171 66.50531046 22.72025686 68.83820631 22.70703125 71.171875 C22.69154739 71.89493835 22.67606354 72.61800171 22.66011047 73.36297607 C22.65906173 76.51210195 22.80605637 78.6586042 24.37695312 81.42382812 C26.37126073 83.3605384 28.02859577 83.97930312 30.6875 84.75 C31.89986328 85.11351562 31.89986328 85.11351562 33.13671875 85.484375 C33.75160156 85.65453125 34.36648437 85.8246875 35 86 C35 86.99 35 87.98 35 89 C23.45 89 11.9 89 0 89 C1 86 1 86 3.9375 84.5 C4.948125 84.005 5.95875 83.51 7 83 C9.38581507 79.42127739 9.27003045 76.9020606 9.22705078 72.7746582 C9.22748886 71.6767244 9.22748886 71.6767244 9.22793579 70.55661011 C9.22654274 68.13787979 9.21098289 65.71945774 9.1953125 63.30078125 C9.19158228 61.62355213 9.18873535 59.94632083 9.18673706 58.26908875 C9.17910132 53.85494977 9.15945335 49.44094244 9.1373291 45.02685547 C9.1168694 40.52247905 9.10773508 36.01808136 9.09765625 31.51367188 C9.0762074 22.67572342 9.04207216 13.83787266 9 5 C4.545 4.01 4.545 4.01 0 3 C0 2.01 0 1.02 0 0 Z " fill="#F6F7F6" transform="translate(99,207)"/>
<path d="M0 0 C0.76775757 0.24349686 0.76775757 0.24349686 1.55102539 0.49191284 C4.79590641 1.16512618 7.8686062 1.12735583 11.18359375 1.12939453 C11.89951691 1.13114685 12.61544006 1.13289917 13.35305786 1.13470459 C15.71456339 1.13909818 18.07599374 1.13619389 20.4375 1.1328125 C22.08129897 1.13348626 23.72509785 1.13445688 25.36889648 1.13571167 C28.81202138 1.13718526 32.25512031 1.13504494 35.69824219 1.13037109 C40.11002163 1.12467401 44.52174024 1.12795482 48.93351746 1.13394356 C52.32727516 1.13755828 55.72101847 1.13640638 59.11477661 1.13381577 C60.74146532 1.13314902 62.36815535 1.1339661 63.99484253 1.13629532 C66.26873232 1.13883677 68.54252378 1.13496017 70.81640625 1.12939453 C72.11006104 1.12859894 73.40371582 1.12780334 74.73657227 1.12698364 C77.37553919 1.02429847 79.5017409 0.79233115 82 0 C82.33885038 2.52019972 82.67120335 5.04098516 83 7.5625 C83.09539062 8.26697266 83.19078125 8.97144531 83.2890625 9.69726562 C83.86666417 14.17367855 84.09489383 18.48661238 84 23 C82.515 22.505 82.515 22.505 81 22 C80.07895841 19.51719223 79.53897531 17.02350353 78.94140625 14.4453125 C77.77217439 11.4082206 76.78860353 10.64726773 74 9 C71.0064314 8.49746855 71.0064314 8.49746855 67.703125 8.48828125 C66.49785156 8.45283203 65.29257812 8.41738281 64.05078125 8.38085938 C62.79652344 8.35830078 61.54226563 8.33574219 60.25 8.3125 C58.98027344 8.27833984 57.71054687 8.24417969 56.40234375 8.20898438 C53.26831726 8.12650999 50.13457045 8.05735516 47 8 C47.03806012 17.43191863 47.09742601 26.86339352 47.18390274 36.2949934 C47.22339126 40.67462335 47.25557287 45.05405183 47.27099609 49.43383789 C47.28615382 53.66160117 47.32058307 57.88881061 47.36830902 62.11632729 C47.38313205 63.72818497 47.39104155 65.34012173 47.39188385 66.95204735 C47.39425262 69.21236401 47.4213215 71.47114897 47.45410156 73.73120117 C47.46298401 75.01693527 47.47186646 76.30266937 47.48101807 77.62736511 C48.08522567 81.55384406 49.23034258 83.20740157 52 86 C54.29629994 87.14814997 56.07698086 87.30769809 58.625 87.5625 C59.44226563 87.64628906 60.25953125 87.73007812 61.1015625 87.81640625 C61.72804688 87.87699219 62.35453125 87.93757813 63 88 C63 88.99 63 89.98 63 91 C48.48 91 33.96 91 19 91 C19 90.01 19 89.02 19 88 C19.66386719 87.91363281 20.32773438 87.82726562 21.01171875 87.73828125 C21.89472656 87.59777344 22.77773437 87.45726562 23.6875 87.3125 C24.55761719 87.18488281 25.42773438 87.05726563 26.32421875 86.92578125 C29.96595881 85.66579235 31.56246547 83.97528256 34 81 C34.71985756 77.59979836 34.71985756 77.59979836 34.56762695 73.82299805 C34.56872215 72.76851723 34.56872215 72.76851723 34.56983948 71.69273376 C34.56637091 69.38159556 34.52755009 67.07250238 34.48828125 64.76171875 C34.47895038 63.15461834 34.47183556 61.54750366 34.46684265 59.94038391 C34.44779401 55.71992406 34.39871274 51.5003309 34.34332275 47.2802124 C34.29208352 42.97013065 34.2693187 38.65990821 34.24414062 34.34960938 C34.19059091 25.8993428 34.10530525 17.44977935 34 9 C29.77106532 8.88366067 25.54254326 8.81270048 21.3125 8.75 C20.11431641 8.71648437 18.91613281 8.68296875 17.68164062 8.6484375 C16.52470703 8.63554687 15.36777344 8.62265625 14.17578125 8.609375 C12.58117065 8.5779541 12.58117065 8.5779541 10.9543457 8.54589844 C7.26665479 9.11271978 5.64199526 10.41703055 3 13 C1.78324341 15.54156953 1.78324341 15.54156953 1.1875 18.25 C0.95417969 19.14203125 0.72085938 20.0340625 0.48046875 20.953125 C0.32191406 21.62859375 0.16335937 22.3040625 0 23 C-0.66 23 -1.32 23 -2 23 C-2.2700558 15.1683819 -1.23107719 7.72720775 0 0 Z " fill="#F6F7F6" transform="translate(217,205)"/>
<path d="M0 0 C3.1335016 -0.34816684 4.55534993 -0.32416572 7.14349365 1.56268311 C9.68575108 4.90028924 9.48247604 7.07602228 9.45410156 11.24707031 C9.45468567 11.96941864 9.45526978 12.69176697 9.45587158 13.43600464 C9.4530908 15.81720488 9.42200139 18.1971442 9.390625 20.578125 C9.38316253 22.23149939 9.37746963 23.88488264 9.37347412 25.53826904 C9.3582181 29.88517778 9.31893695 34.23154999 9.2746582 38.57824707 C9.23370458 43.01563255 9.21546294 47.45310492 9.1953125 51.890625 C9.1524423 60.59399593 9.08419184 69.29693118 9 78 C8.67 78 8.34 78 8 78 C7.67 74.7 7.34 71.4 7 68 C2.16148544 65.58579336 -2.76252633 65.37693545 -8.0625 64.9375 C-9.84528814 64.78264188 -11.62785287 64.6251848 -13.41015625 64.46484375 C-14.19527588 64.399021 -14.98039551 64.33319824 -15.78930664 64.26538086 C-18 64 -18 64 -20.02685547 63.48144531 C-23.64667957 62.59821181 -27.35407402 62.80961547 -31.0625 62.8125 C-31.90852783 62.81185547 -32.75455566 62.81121094 -33.6262207 62.81054688 C-39.95709577 62.86381363 -45.81753469 63.56638485 -52 65 C-52 68.63 -52 72.26 -52 76 C-52.33 76 -52.66 76 -53 76 C-53.0246519 71.17619198 -53.04283693 66.35242033 -53.05493164 61.52856445 C-53.05997174 59.88630536 -53.06680378 58.24405077 -53.07543945 56.60180664 C-53.08751926 54.24624521 -53.09323139 51.89074291 -53.09765625 49.53515625 C-53.10281754 48.79660904 -53.10797882 48.05806183 -53.11329651 47.2971344 C-53.1134925 45.53101912 -53.06194719 43.76502854 -53 42 C-50.36815994 39.36815994 -43.09159249 40.68203834 -39.3269043 40.64990234 C-37.90583905 40.63336136 -36.48485637 40.60609479 -35.06420898 40.56787109 C-33.01502359 40.51300989 -30.96779026 40.49121697 -28.91796875 40.4765625 C-27.68844482 40.45674316 -26.4589209 40.43692383 -25.19213867 40.41650391 C-22 41 -22 41 -19.56762695 43.28271484 C-18 46 -18 46 -18 50 C-17.34 50 -16.68 50 -16 50 C-16 42.41 -16 34.82 -16 27 C-15.67 27 -15.34 27 -15 27 C-14.67 33.6 -14.34 40.2 -14 47 C-11.091875 48.2065625 -11.091875 48.2065625 -8.125 49.4375 C-2.25 51.875 -2.25 51.875 0 53 C-0.144375 52.23042969 -0.28875 51.46085937 -0.4375 50.66796875 C-1.86244281 41.85113511 -2.22073156 33.17992399 -2.25 24.25 C-2.25902344 23.11457764 -2.26804688 21.97915527 -2.27734375 20.80932617 C-2.25240045 13.6656692 -1.54131358 6.97628719 0 0 Z " fill="#186336" transform="translate(174,210)"/>
<path d="M0 0 C10.56 0 21.12 0 32 0 C32 0.99 32 1.98 32 3 C31.43410156 3.12117187 30.86820313 3.24234375 30.28515625 3.3671875 C29.18494141 3.61855469 29.18494141 3.61855469 28.0625 3.875 C27.33160156 4.03742188 26.60070312 4.19984375 25.84765625 4.3671875 C23.79299706 4.82961523 23.79299706 4.82961523 23 7 C22.88196879 9.3526549 22.83009748 11.70870715 22.80712891 14.06420898 C22.79895142 14.79119995 22.79077393 15.51819092 22.78234863 16.26721191 C22.75750213 18.67683077 22.74098324 21.08639087 22.7265625 23.49609375 C22.72123882 24.31795732 22.71591515 25.1398209 22.71043015 25.98658943 C22.68370552 30.33423048 22.66432592 34.68184283 22.64990234 39.02954102 C22.63322932 43.52698689 22.5884283 48.02370353 22.5375309 52.52087307 C22.50393546 55.97378923 22.49233364 59.42653035 22.48667526 62.8795948 C22.47994448 64.53786881 22.46467511 66.19613058 22.44078445 67.85424614 C22.4092839 70.17224187 22.40907167 72.48824436 22.41650391 74.80639648 C22.40841705 76.12606918 22.4003302 77.44574188 22.39199829 78.80540466 C22.67149678 82.16298941 22.67149678 82.16298941 25.39193726 83.90663147 C27.60915624 84.83614801 29.64029559 85.5630177 32 86 C32 86.99 32 87.98 32 89 C21.44 89 10.88 89 0 89 C0 88.01 0 87.02 0 86 C1.670625 85.5978125 1.670625 85.5978125 3.375 85.1875 C7.21840951 84.34190981 7.21840951 84.34190981 9 81 C9.31293642 77.7230983 9.31293642 77.7230983 9.2746582 73.9140625 C9.27976913 73.19667908 9.28488007 72.47929565 9.29014587 71.74017334 C9.30404851 69.36836409 9.30308484 66.99684515 9.30078125 64.625 C9.30466742 62.9773752 9.30900193 61.3297514 9.31376648 59.68212891 C9.32122983 56.2288081 9.32093631 52.77558954 9.31567383 49.32226562 C9.30987476 44.89340264 9.32681996 40.46495724 9.3500185 36.03616333 C9.3647372 32.63384549 9.36563018 29.2316287 9.36250877 25.82928467 C9.36302279 24.19617891 9.36827551 22.56306762 9.37832069 20.92999268 C9.39063397 18.6483632 9.38392528 16.36755348 9.37231445 14.0859375 C9.37294388 12.7870459 9.3735733 11.4881543 9.3742218 10.14990234 C9.25674044 7.05047325 9.25674044 7.05047325 7.6759491 5.10009766 C5.24503703 3.50444021 2.85200149 3.31688905 0 3 C0 2.01 0 1.02 0 0 Z " fill="#F6F8F7" transform="translate(173,207)"/>
<path d="M0 0 C2.77674402 0.35630786 3.87146271 0.86876234 5.859375 2.8984375 C6.48328125 3.71570313 7.1071875 4.53296875 7.75 5.375 C8.45125 6.28894531 9.1525 7.20289063 9.875 8.14453125 C10.57625 9.08683594 11.2775 10.02914063 12 11 C12.61875 11.82886719 13.2375 12.65773438 13.875 13.51171875 C17.95137305 19.05728459 21.90716326 24.6891003 25.875 30.3125 C26.39030273 31.04194824 26.90560547 31.77139648 27.43652344 32.52294922 C29.82765289 35.91000736 32.21168128 39.3011571 34.5703125 42.7109375 C48.01902532 62.03339979 63.29815735 78.32086311 84 90 C83.67 91.65 83.34 93.3 83 95 C77.60260508 96.50159364 74.21772475 95.25910884 69.4375 92.75 C68.39348022 92.21342773 68.39348022 92.21342773 67.32836914 91.66601562 C47.6244077 81.07814172 34.84653628 62.32582661 24.24755859 43.22363281 C21.57089871 38.45278777 18.81340882 33.72828395 16.0625 29 C15.15781982 27.44236938 15.15781982 27.44236938 14.23486328 25.85327148 C10.18777796 18.92473602 5.97219895 12.15708681 1.4765625 5.51171875 C0 3 0 3 0 0 Z " fill="#195F35" transform="translate(383,303)"/>
<path d="M0 0 C2.74039337 1.24563335 4.4643868 2.31135445 6.3125 4.6875 C8.21761587 11.095617 7.01172731 16.5217286 4.37109375 22.48828125 C-1.76538953 33.72975917 -12.80927438 40.58838299 -24.75 44.5 C-32.80074443 46.57174913 -40.75976649 46.35913851 -49 46 C-49 44.68 -49 43.36 -49 42 C-48.04480469 41.49210937 -47.08960938 40.98421875 -46.10546875 40.4609375 C-43.4141068 39.02948093 -40.72600284 37.59207993 -38.0390625 36.15234375 C-35.64771682 34.87250811 -33.25014165 33.61581331 -30.8359375 32.37890625 C-23.0440601 28.3293249 -14.74399925 23.26799833 -11 15 C-10.93748465 11.865897 -11.0610064 8.82876589 -11.34765625 5.70703125 C-11 3 -11 3 -8.68359375 1.16015625 C-5.47060638 -0.22886449 -3.47100428 -0.43387554 0 0 Z " fill="#166234" transform="translate(354,134)"/>
<path d="M0 0 C6.08351945 -0.27434135 10.83039357 0.50113098 16.5625 2.5 C17.3447998 2.76989746 18.12709961 3.03979492 18.93310547 3.31787109 C37.48504205 9.96103767 61.86630072 23.73260144 71 42 C70.81353683 44.29971238 70.62542316 45.37457684 69 47 C65.88286772 47.38092322 64.37541427 47.23155805 61.67578125 45.56640625 C60.89589844 44.90511719 60.11601563 44.24382812 59.3125 43.5625 C58.44496094 42.83289063 57.57742188 42.10328125 56.68359375 41.3515625 C52.41508991 37.61118504 48.19625635 33.82109436 44 30 C42.06884017 28.27412094 40.12721519 26.5644063 38.1640625 24.875 C36.555405 23.48121733 34.97038817 22.06005406 33.3984375 20.625 C23.46347942 11.84153302 12.40580723 6.50744329 0 2 C0 1.34 0 0.68 0 0 Z " fill="#176234" transform="translate(568,389)"/>
<path d="M0 0 C2.55538982 1.62189027 5.10899599 3.24646011 7.66015625 4.875 C9.93373746 6.32158267 12.21117196 7.75918646 14.49609375 9.1875 C21.71017944 13.72328459 28.45436398 18.52132663 35 24 C35.64195312 24.49628906 36.28390625 24.99257813 36.9453125 25.50390625 C38.625 26.8125 38.625 26.8125 41 29 C41 29.99 41 30.98 41 32 C41.99 32.495 41.99 32.495 43 33 C31.19921505 33.80868323 22.55017272 32.97605922 12.8828125 25.32421875 C6.33542808 19.21238995 2.10730624 11.68621353 0 3 C0 2.01 0 1.02 0 0 Z " fill="#166234" transform="translate(327,260)"/>
<path d="M0 0 C8.91 0 17.82 0 27 0 C27 0.33 27 0.66 27 1 C20.4 1 13.8 1 7 1 C6.59088294 22.97036433 6.59088294 22.97036433 14 43 C14.86625 43.33 15.7325 43.66 16.625 44 C19 45 19 45 20.0625 47.375 C20 50 20 50 18.5 52.3125 C15.06875397 54.62859107 13.05797526 54.6521746 9 54 C4.11352818 49.6719821 1.36991797 42.31673425 0 36 C-0.08348775 33.23574767 -0.11625686 30.49786288 -0.09765625 27.734375 C-0.0962413 26.94097717 -0.09482635 26.14757935 -0.09336853 25.33013916 C-0.08778415 22.80338728 -0.07523454 20.27672496 -0.0625 17.75 C-0.05748298 16.03385545 -0.05292043 14.31770951 -0.04882812 12.6015625 C-0.03867198 8.40097965 -0.01909359 4.20058973 0 0 Z " fill="#185F34" transform="translate(264,213)"/>
<path d="M0 0 C1.21606934 0.00080566 2.43213867 0.00161133 3.68505859 0.00244141 C10.82845149 0.05065009 17.89661981 0.2887839 25 1.0625 C25.73299316 1.14089111 26.46598633 1.21928223 27.22119141 1.30004883 C32.10807746 1.92057746 32.10807746 1.92057746 34.375 4.1875 C34 6.8125 34 6.8125 33.375 9.1875 C20.51406315 9.41868388 8.09712129 9.25495806 -4.625 7.1875 C-5.4102002 7.06439453 -6.19540039 6.94128906 -7.00439453 6.81445312 C-21.64043452 4.51568849 -21.64043452 4.51568849 -25.625 3.1875 C-25.625 2.5275 -25.625 1.8675 -25.625 1.1875 C-17.07076404 0.34180819 -8.59446823 -0.00595267 0 0 Z " fill="#185D33" transform="translate(284.625,113.8125)"/>
<path d="M0 0 C0.33 0 0.66 0 1 0 C1.495 9.405 1.495 9.405 2 19 C0.5975 18.29875 -0.805 17.5975 -2.25 16.875 C-3.16652344 16.41996094 -4.08304687 15.96492188 -5.02734375 15.49609375 C-6.98847429 14.50908587 -8.93944731 13.50159579 -10.87890625 12.47265625 C-18.0484379 8.72082411 -25.20030358 6.13862644 -33 4 C-33 3.01 -33 2.02 -33 1 C-26.06451899 0.46074014 -19.7849069 1.27631298 -13.0625 2.875 C-12.329104 3.04870117 -11.59570801 3.22240234 -10.84008789 3.40136719 C-7.34999309 4.27218065 -4.12340637 5.18956602 -1 7 C-0.67 4.69 -0.34 2.38 0 0 Z " fill="#1E5735" transform="translate(312,244)"/>
<path d="M0 0 C2.55234484 1.61995764 5.1031462 3.24227964 7.65234375 4.8671875 C9.95493287 6.33418127 12.25958891 7.79751642 14.56640625 9.2578125 C20.89697263 13.27968445 27.08048636 17.38277936 33 22 C32.01 22.33 31.02 22.66 30 23 C29.566875 22.525625 29.13375 22.05125 28.6875 21.5625 C26.97690387 19.76313043 26.97690387 19.76313043 24 19 C23.67 18.34 23.34 17.68 23 17 C19.00820257 15.66940086 16.73682109 16.18497261 13 18 C13.99 19.65 14.98 21.3 16 23 C12.20480509 22.46867271 9.95687794 22.02743115 7.3046875 19.1796875 C3.34985368 13.47598244 0 7.06423698 0 0 Z " fill="#166435" transform="translate(327,260)"/>
<path d="M0 0 C3.1335016 -0.34816684 4.55534993 -0.32416572 7.14349365 1.56268311 C9.68575108 4.90028924 9.48247604 7.07602228 9.45410156 11.24707031 C9.45468567 11.96941864 9.45526978 12.69176697 9.45587158 13.43600464 C9.4530908 15.81720488 9.42200139 18.1971442 9.390625 20.578125 C9.38316253 22.23149939 9.37746963 23.88488264 9.37347412 25.53826904 C9.3582181 29.88517778 9.31893695 34.23154999 9.2746582 38.57824707 C9.23370458 43.01563255 9.21546294 47.45310492 9.1953125 51.890625 C9.1524423 60.59399593 9.08419184 69.29693118 9 78 C8.67 78 8.34 78 8 78 C7.505 73.05 7.505 73.05 7 68 C3.33552568 66.35199144 0.18796534 65.66419027 -3.8125 65.375 C-5.27623047 65.26285156 -5.27623047 65.26285156 -6.76953125 65.1484375 C-7.87361328 65.07496094 -7.87361328 65.07496094 -9 65 C-5 63 -5 63 7 64 C6.67 43.87 6.34 23.74 6 3 C1.79819816 3.5739739 1.79819816 3.5739739 0 7 C0 4.69 0 2.38 0 0 Z " fill="#1D5C37" transform="translate(174,210)"/>
<path d="M0 0 C6.2459922 -0.30485546 11.0631904 0.61576248 16.9375 2.6875 C17.72366699 2.95643066 18.50983398 3.22536133 19.31982422 3.50244141 C24.91838244 5.47383009 29.96470623 7.82962985 35 11 C33 12 33 12 30.8359375 11.44140625 C29.61777344 11.00634766 29.61777344 11.00634766 28.375 10.5625 C27.14910156 10.13130859 27.14910156 10.13130859 25.8984375 9.69140625 C25.27195312 9.46324219 24.64546875 9.23507812 24 9 C27.51879441 12.73871906 31.21946832 15.72121718 35.42578125 18.66796875 C35.94527344 19.10753906 36.46476563 19.54710937 37 20 C37 20.66 37 21.32 37 22 C37.66 22.33 38.32 22.66 39 23 C34.8489474 23 33.84690206 21.27909375 30.8125 18.5 C21.82911158 10.62336278 11.13604529 6.04609646 0 2 C0 1.34 0 0.68 0 0 Z " fill="#1D5B36" transform="translate(568,389)"/>
<path d="M0 0 C2 3 2 3 1.6875 5.625 C1 8 1 8 0 9 C-2.40043189 9.21310863 -4.78218467 9.37688433 -7.1875 9.5 C-11.86672533 9.75715075 -16.3912605 10.13989309 -21 11 C-20.875 9.25 -20.875 9.25 -20 7 C-14.43143909 2.51798756 -7.29661341 -1.04237334 0 0 Z " fill="#195D34" transform="translate(312,101)"/>
<path d="M0 0 C4.21749219 -0.07419134 8.43463811 -0.1286204 12.65258789 -0.16479492 C14.08722552 -0.17987589 15.52181708 -0.2003438 16.95629883 -0.22631836 C19.01915859 -0.26273437 21.08140858 -0.27973243 23.14453125 -0.29296875 C25.00621948 -0.31653442 25.00621948 -0.31653442 26.90551758 -0.34057617 C30 0 30 0 31.9284668 1.39331055 C33 3 33 3 33 5 C32.21351074 4.99476318 31.42702148 4.98952637 30.61669922 4.98413086 C27.03614101 4.9632799 23.45559562 4.95031399 19.875 4.9375 C18.01875 4.92493164 18.01875 4.92493164 16.125 4.91210938 C14.92617187 4.90888672 13.72734375 4.90566406 12.4921875 4.90234375 C11.39245605 4.89710693 10.29272461 4.89187012 9.15966797 4.88647461 C6.02381895 4.9991442 3.07940617 5.41373624 0 6 C0 4.02 0 2.04 0 0 Z " fill="#010501" transform="translate(122,251)"/>
<path d="M0 0 C0.33 0 0.66 0 1 0 C1.33 6.27 1.66 12.54 2 19 C-8.71428571 13.85714286 -8.71428571 13.85714286 -13 10 C-11.02 10 -9.04 10 -7 10 C-6.67 8.68 -6.34 7.36 -6 6 C-4.35 6.33 -2.7 6.66 -1 7 C-0.67 4.69 -0.34 2.38 0 0 Z " fill="#195F36" transform="translate(312,244)"/>
<path d="M0 0 C2.55234484 1.61995764 5.1031462 3.24227964 7.65234375 4.8671875 C9.95493287 6.33418127 12.25958891 7.79751642 14.56640625 9.2578125 C20.89697263 13.27968445 27.08048636 17.38277936 33 22 C32.01 22.33 31.02 22.66 30 23 C29.566875 22.525625 29.13375 22.05125 28.6875 21.5625 C26.97690387 19.76313043 26.97690387 19.76313043 24 19 C23.67 18.34 23.34 17.68 23 17 C21.35636866 16.27840576 19.68949614 15.60648579 18 15 C18 14.34 18 13.68 18 13 C16.68 12.67 15.36 12.34 14 12 C14 11.34 14 10.68 14 10 C13.113125 9.71125 12.22625 9.4225 11.3125 9.125 C8.49617576 8.16851252 5.74916844 7.13201054 3 6 C3.33 7.65 3.66 9.3 4 11 C4.99 11.33 5.98 11.66 7 12 C7 12.99 7 13.98 7 15 C6.01 14.67 5.02 14.34 4 14 C2.83203125 11.6015625 2.83203125 11.6015625 1.8125 8.625 C1.29623047 7.15933594 1.29623047 7.15933594 0.76953125 5.6640625 C0 3 0 3 0 0 Z " fill="#205938" transform="translate(327,260)"/>
<path d="M0 0 C0.33 0 0.66 0 1 0 C1.92092281 4.65537356 2.12205997 9.14685433 2.0625 13.875 C2.05798828 14.56335938 2.05347656 15.25171875 2.04882812 15.9609375 C2.03716336 17.64066335 2.01923271 19.32034375 2 21 C2.76570313 20.67257812 3.53140625 20.34515625 4.3203125 20.0078125 C9.2331039 18.66227091 13.80978999 18.78577543 18.875 18.875 C19.84953125 18.88402344 20.8240625 18.89304687 21.828125 18.90234375 C24.21900728 18.92578377 26.60937261 18.95859558 29 19 C29 19.33 29 19.66 29 20 C27.35064453 20.07347656 27.35064453 20.07347656 25.66796875 20.1484375 C17.28014877 20.55961446 9.24014085 21.25912517 1 23 C1 26.63 1 30.26 1 34 C0.67 34 0.34 34 0 34 C0 22.78 0 11.56 0 0 Z " fill="#315E43" transform="translate(121,252)"/>
<path d="M0 0 C2.74039337 1.24563335 4.4643868 2.31135445 6.3125 4.6875 C7.37332445 8.25572771 7.2366705 11.27243956 7 15 C6.01 16.485 6.01 16.485 5 18 C5.020625 16.80375 5.04125 15.6075 5.0625 14.375 C5.06882571 10.81995131 4.69888875 7.49444376 4 4 C3.01 4 2.02 4 1 4 C1 3.34 1 2.68 1 2 C-2.59627792 1.67306564 -4.37635888 1.52805537 -7.3125 3.75 C-8.95208905 5.93611873 -9.61794563 7.32561938 -10 10 C-9.34 10 -8.68 10 -8 10 C-8.41778991 15.7097955 -10.57546571 18.60957142 -14 23 C-14.66 22.67 -15.32 22.34 -16 22 C-15.175 21.0925 -14.35 20.185 -13.5 19.25 C-10.25739049 14.85446267 -10.77902465 10.92660724 -11.3125 5.671875 C-11 3 -11 3 -8.6875 1.1640625 C-5.4721238 -0.22864405 -3.47448974 -0.43431122 0 0 Z " fill="#1F5635" transform="translate(354,134)"/>
<path d="M0 0 C0.33 0 0.66 0 1 0 C1 24.42 1 48.84 1 74 C0.67 74 0.34 74 0 74 C-0.06058594 73.31292969 -0.12117187 72.62585938 -0.18359375 71.91796875 C-0.26738281 71.01691406 -0.35117188 70.11585938 -0.4375 69.1875 C-0.51871094 68.29417969 -0.59992188 67.40085937 -0.68359375 66.48046875 C-0.93489767 63.87256441 -0.93489767 63.87256441 -2 61 C-1.34 61 -0.68 61 0 61 C0 40.87 0 20.74 0 0 Z " fill="#315B41" transform="translate(182,214)"/>
<path d="M0 0 C12.67577717 0.54510048 25.34079814 1.14758956 38 2 C34.91076913 3.76424607 32.34537815 4.36917568 28.8125 4.6875 C27.49185547 4.81705078 27.49185547 4.81705078 26.14453125 4.94921875 C25.43683594 4.96597656 24.72914063 4.98273438 24 5 C23.67 4.67 23.34 4.34 23 4 C21.46518773 3.79731006 19.92254868 3.65305434 18.37890625 3.53515625 C16.97608398 3.41817383 16.97608398 3.41817383 15.54492188 3.29882812 C13.56082688 3.14160776 11.57644658 2.98794632 9.59179688 2.83789062 C8.65529297 2.75861328 7.71878906 2.67933594 6.75390625 2.59765625 C5.89095947 2.53070557 5.0280127 2.46375488 4.13891602 2.39477539 C2 2 2 2 0 0 Z " fill="#215736" transform="translate(208,329)"/>
<path d="M0 0 C1.27875 0.144375 2.5575 0.28875 3.875 0.4375 C8.91280884 0.99814645 13.95536879 1.50501531 19 2 C18.34 3.65 17.68 5.3 17 7 C15.02 7 13.04 7 11 7 C11 6.34 11 5.68 11 5 C10.484375 4.896875 9.96875 4.79375 9.4375 4.6875 C6.13973565 3.75736134 3.13366668 2.38604488 0 1 C0 0.67 0 0.34 0 0 Z " fill="#166335" transform="translate(288,247)"/>
<path d="M0 0 C0 0.33 0 0.66 0 1 C-1.05058594 1.19335938 -2.10117187 1.38671875 -3.18359375 1.5859375 C-4.60156732 1.84893236 -6.01953572 2.11195508 -7.4375 2.375 C-8.54738281 2.57863159 -8.54738281 2.57863159 -9.6796875 2.78637695 C-13.33201013 3.4647686 -16.91372535 4.21197715 -20.5 5.1875 C-27.13535846 6.75869056 -34.22978955 6.14952612 -41 6 C-41 5.67 -41 5.34 -41 5 C-40.18917969 4.96261719 -39.37835938 4.92523438 -38.54296875 4.88671875 C-31.86295563 4.49011727 -25.83035954 3.59610203 -19.41796875 1.69921875 C-12.98548298 -0.16090234 -6.63062471 -0.12007167 0 0 Z " fill="#1F5935" transform="translate(508,53)"/>
<path d="M0 0 C6.93 0.33 13.86 0.66 21 1 C21 1.99 21 2.98 21 4 C11.58786748 4.12873737 2.37912587 3.79822348 -7 3 C-7 2.67 -7 2.34 -7 2 C-4.69 2 -2.38 2 0 2 C0 1.34 0 0.68 0 0 Z " fill="#021C0A" transform="translate(223,327)"/>
<path d="M0 0 C1.22589844 0.01353516 1.22589844 0.01353516 2.4765625 0.02734375 C3.41628906 0.04474609 3.41628906 0.04474609 4.375 0.0625 C4.375 1.7125 4.375 3.3625 4.375 5.0625 C-0.14218381 6.43134358 -3.21274263 5.53325246 -7.625 4.0625 C-7.295 3.0725 -6.965 2.0825 -6.625 1.0625 C-4.21954362 -0.14022819 -2.67503047 -0.03821472 0 0 Z " fill="#166536" transform="translate(311.625,116.9375)"/>
<path d="M0 0 C2.49361571 1.20381448 4.68143083 2.45428722 7 4 C7 4.99 7 5.98 7 7 C7.66 7.33 8.32 7.66 9 8 C3.72 8 -1.56 8 -7 8 C-7 7.01 -7 6.02 -7 5 C-4.36 5 -1.72 5 1 5 C0.67 3.35 0.34 1.7 0 0 Z " fill="#2D6141" transform="translate(361,285)"/>
<path d="M0 0 C8.91 0 17.82 0 27 0 C27 0.33 27 0.66 27 1 C20.4 1 13.8 1 7 1 C6.67 5.95 6.34 10.9 6 16 C5.67 16 5.34 16 5 16 C4.97421875 15.09636719 4.9484375 14.19273437 4.921875 13.26171875 C4.86515625 12.08222656 4.8084375 10.90273437 4.75 9.6875 C4.70359375 8.51574219 4.6571875 7.34398437 4.609375 6.13671875 C4.26712664 2.50149694 4.26712664 2.50149694 0 0 Z " fill="#345240" transform="translate(264,213)"/>
<path d="M0 0 C0 3 0 3 -1.35546875 4.6484375 C-1.96003906 5.21820313 -2.56460938 5.78796875 -3.1875 6.375 C-3.83074219 6.99246094 -4.47398437 7.60992187 -5.13671875 8.24609375 C-5.75160156 8.82488281 -6.36648437 9.40367187 -7 10 C-11.24317037 14.13709111 -15.13584022 18.51222942 -19 23 C-19.66 22.67 -20.32 22.34 -21 22 C-16.28865928 15.96904764 -11.62977817 10.33592858 -5.73046875 5.4375 C-3.69220142 3.74431179 -1.83427067 1.91069862 0 0 Z " fill="#011405" transform="translate(233,139)"/>
<path d="M0 0 C0.33 0 0.66 0 1 0 C1.33 6.27 1.66 12.54 2 19 C0.02 18.01 -1.96 17.02 -4 16 C-4 13 -4 13 -2.5625 10.8125 C-0.51450381 7.12610686 -0.35469174 4.18536253 0 0 Z " fill="#3B6A4F" transform="translate(312,244)"/>
<path d="M0 0 C4.86111111 4.13194444 4.86111111 4.13194444 5.5 8.125 C4.942828 11.328739 4.51208073 12.05976354 2 14 C0.00708008 14.34057617 0.00708008 14.34057617 -2.23046875 14.29296875 C-3.03291016 14.28330078 -3.83535156 14.27363281 -4.66210938 14.26367188 C-5.49548828 14.23853516 -6.32886719 14.21339844 -7.1875 14.1875 C-8.03248047 14.17396484 -8.87746094 14.16042969 -9.74804688 14.14648438 C-11.83230384 14.11115799 -13.91623277 14.05735139 -16 14 C-16 13.67 -16 13.34 -16 13 C-10.06 12.67 -4.12 12.34 2 12 C2.09921856 5.48268118 2.09921856 5.48268118 0 0 Z " fill="#225A39" transform="translate(592,411)"/>
<path d="M0 0 C1.92115085 1.07536117 3.83675274 2.16063912 5.75 3.25 C7.35101563 4.15492188 7.35101563 4.15492188 8.984375 5.078125 C11.74387579 6.83677058 13.80562099 8.59257448 16 11 C9.17732778 10.35022169 4.44640073 7.13046238 0 2 C0 1.34 0 0.68 0 0 Z " fill="#0A170D" transform="translate(337,280)"/>
<path d="M0 0 C4.99707191 3.90303841 10.11194059 8.24717199 13 14 C12.65625 16.2421875 12.65625 16.2421875 12 18 C10.68 18.33 9.36 18.66 8 19 C8.66 18.34 9.32 17.68 10 17 C10.6425235 14.93125966 10.6425235 14.93125966 11 13 C10.01 12.67 9.02 12.34 8 12 C7.67 11.01 7.34 10.02 7 9 C6.01 8.67 5.02 8.34 4 8 C3.67 7.01 3.34 6.02 3 5 C2.484375 4.484375 1.96875 3.96875 1.4375 3.4375 C0.963125 2.963125 0.48875 2.48875 0 2 C0 1.34 0 0.68 0 0 Z " fill="#205535" transform="translate(626,417)"/>
<path d="M0 0 C2.31 1.65 4.62 3.3 7 5 C6.67 5.66 6.34 6.32 6 7 C5.01 6.67 4.02 6.34 3 6 C3.33 7.65 3.66 9.3 4 11 C4.99 11.33 5.98 11.66 7 12 C7 12.99 7 13.98 7 15 C6.01 14.67 5.02 14.34 4 14 C2.83203125 11.6015625 2.83203125 11.6015625 1.8125 8.625 C1.29623047 7.15933594 1.29623047 7.15933594 0.76953125 5.6640625 C0 3 0 3 0 0 Z " fill="#2D6242" transform="translate(327,260)"/>
<path d="M0 0 C1.134375 0.020625 2.26875 0.04125 3.4375 0.0625 C0.97423173 1.70467885 -0.74495703 2.5921304 -3.46875 3.53515625 C-4.21253906 3.79490234 -4.95632813 4.05464844 -5.72265625 4.32226562 C-6.49480469 4.58716797 -7.26695312 4.85207031 -8.0625 5.125 C-8.83464844 5.39376953 -9.60679687 5.66253906 -10.40234375 5.93945312 C-13.45005911 6.9984946 -16.5015698 8.04218993 -19.5625 9.0625 C-19.2325 7.7425 -18.9025 6.4225 -18.5625 5.0625 C-17.551875 4.959375 -16.54125 4.85625 -15.5 4.75 C-9.971958 3.78478632 -5.27127424 0.0924785 0 0 Z " fill="#1F5835" transform="translate(452.5625,78.9375)"/>
<path d="M0 0 C0.99 0 1.98 0 3 0 C1.53642507 3.591692 -0.35093151 5.32401134 -3.4375 7.625 C-4.21996094 8.21539062 -5.00242187 8.80578125 -5.80859375 9.4140625 C-7.51238212 10.64710721 -9.25006271 11.83337514 -11 13 C-13.1875 12.625 -13.1875 12.625 -15 12 C-14.01 11.67 -13.02 11.34 -12 11 C-11.566875 10.525625 -11.13375 10.05125 -10.6875 9.5625 C-9 8 -9 8 -5.875 7 C-4.92625 6.67 -3.9775 6.34 -3 6 C-2.67 5.01 -2.34 4.02 -2 3 C-1.34 3 -0.68 3 0 3 C0 2.01 0 1.02 0 0 Z " fill="#1F5936" transform="translate(351,161)"/>
<path d="M0 0 C5.21979128 -0.1799928 9.07262981 0.02905192 14 2 C14.33 3.65 14.66 5.3 15 7 C13.68 7.33 12.36 7.66 11 8 C11.33 6.02 11.66 4.04 12 2 C8.04 2 4.08 2 0 2 C0 1.34 0 0.68 0 0 Z " fill="#215434" transform="translate(304,115)"/>
<path d="M0 0 C11.385 0.99 11.385 0.99 23 2 C23 2.33 23 2.66 23 3 C18.05 3.33 13.1 3.66 8 4 C8 3.34 8 2.68 8 2 C5.03 2 2.06 2 -1 2 C-0.67 1.34 -0.34 0.68 0 0 Z " fill="#1E5A37" transform="translate(216,313)"/>
<path d="M0 0 C2.375 1 2.375 1 4.375 5 C0.745 4.67 -2.885 4.34 -6.625 4 C-3.35227273 0 -3.35227273 0 0 0 Z " fill="#060C06" transform="translate(150.625,251)"/>
<path d="M0 0 C4.49201278 -0.36421725 4.49201278 -0.36421725 6.65625 1.1875 C8.46278055 3.62421563 8.30430752 5.18944021 8.1875 8.1875 C8.16042969 9.08855469 8.13335937 9.98960937 8.10546875 10.91796875 C8.07066406 11.60503906 8.03585938 12.29210937 8 13 C7.67 13 7.34 13 7 13 C6.67 9.7 6.34 6.4 6 3 C1.79819816 3.5739739 1.79819816 3.5739739 0 7 C0 4.69 0 2.38 0 0 Z " fill="#275A3C" transform="translate(174,210)"/>
<path d="M0 0 C0.33 0 0.66 0 1 0 C1.39935198 4.52598908 0.03210897 7.0139401 -2 11 C-2.79085051 13.65054747 -3.39438848 16.29804091 -4 19 C-4.33 19 -4.66 19 -5 19 C-5.8089913 11.8808766 -2.93279777 6.37883514 0 0 Z " fill="#1C5232" transform="translate(183,183)"/>
<path d="M0 0 C-3.13630906 2.09087271 -5.78507349 3.0159838 -9.375 4.125 C-10.49648438 4.47820312 -11.61796875 4.83140625 -12.7734375 5.1953125 C-15.68650019 5.92181482 -18.02106411 6.16735595 -21 6 C-17.84372803 3.29786788 -15.08615111 2.27147864 -11.0625 1.3125 C-9.53302734 0.93544922 -9.53302734 0.93544922 -7.97265625 0.55078125 C-5.22826572 0.04229365 -2.78116004 -0.10755868 0 0 Z " fill="#1E5734" transform="translate(277,320)"/>
<path d="M0 0 C0.93423645 3.01031744 1.04449911 3.86650268 0 7 C-4.95 7 -9.9 7 -15 7 C-14.67 6.01 -14.34 5.02 -14 4 C-13.34 4.33 -12.68 4.66 -12 5 C-8.94637543 5.40560478 -6.04208611 5.52372911 -3 5 C-0.84397306 2.66250834 -0.84397306 2.66250834 0 0 Z " fill="#225A37" transform="translate(190,200)"/>
<path d="M0 0 C4.27411651 0.48469363 5.95055114 1.541098 8.625 4.875 C10.66222509 7.37313575 12.67720061 9.76166604 15 12 C12 12 12 12 10.3515625 10.64453125 C9.78179687 10.03996094 9.21203125 9.43539063 8.625 8.8125 C8.01785156 8.17828125 7.41070312 7.5440625 6.78515625 6.890625 C6.19605469 6.26671875 5.60695313 5.6428125 5 5 C4.02448918 4.01719109 3.04586004 3.03745526 2.0625 2.0625 C1.381875 1.381875 0.70125 0.70125 0 0 Z " fill="#225A39" transform="translate(352,360)"/>
<path d="M0 0 C5.2905277 -0.66131596 8.15696618 0.95446148 12.4609375 3.7109375 C12.96882813 4.13632813 13.47671875 4.56171875 14 5 C14 5.66 14 6.32 14 7 C13.01 7 12.02 7 11 7 C11 6.34 11 5.68 11 5 C10.01 5 9.02 5 8 5 C8 4.34 8 3.68 8 3 C6.865625 2.87625 5.73125 2.7525 4.5625 2.625 C3.386875 2.41875 2.21125 2.2125 1 2 C0.67 1.34 0.34 0.68 0 0 Z " fill="#205536" transform="translate(255,119)"/>
<path d="M0 0 C0.66 0.33 1.32 0.66 2 1 C1.278125 1.40992188 0.55625 1.81984375 -0.1875 2.2421875 C-1.115625 2.78101563 -2.04375 3.31984375 -3 3.875 C-3.928125 4.40867188 -4.85625 4.94234375 -5.8125 5.4921875 C-6.534375 5.98976562 -7.25625 6.48734375 -8 7 C-8 7.66 -8 8.32 -8 9 C-9.65 9 -11.3 9 -13 9 C-12 6 -12 6 -9.34765625 4.359375 C-8.26355469 3.82828125 -7.17945313 3.2971875 -6.0625 2.75 C-4.98097656 2.20859375 -3.89945312 1.6671875 -2.78515625 1.109375 C-1.40650391 0.56023437 -1.40650391 0.56023437 0 0 Z " fill="#205D39" transform="translate(317,170)"/>
<path d="M0 0 C0.33 0.99 0.66 1.98 1 3 C0.45730469 3.39832031 -0.08539063 3.79664063 -0.64453125 4.20703125 C-1.35996094 4.73683594 -2.07539063 5.26664063 -2.8125 5.8125 C-3.87404297 6.59560547 -3.87404297 6.59560547 -4.95703125 7.39453125 C-6.78531393 8.83128877 -8.39896688 10.31815763 -10 12 C-10.66 11.67 -11.32 11.34 -12 11 C-10.37807179 9.35113941 -8.75236228 7.7059976 -7.125 6.0625 C-6.22007812 5.14597656 -5.31515625 4.22945312 -4.3828125 3.28515625 C-2 1 -2 1 0 0 Z " fill="#1D5635" transform="translate(219,139)"/>
<path d="M0 0 C1.62978448 0.92915757 3.25368275 1.86864534 4.875 2.8125 C5.77992188 3.33457031 6.68484375 3.85664063 7.6171875 4.39453125 C10 6 10 6 12 9 C9.03 8.01 6.06 7.02 3 6 C3 5.34 3 4.68 3 4 C2.01 3.67 1.02 3.34 0 3 C0 2.01 0 1.02 0 0 Z " fill="#1F5A37" transform="translate(327,320)"/>
<path d="M0 0 C5.05531868 0.77774134 10.01716284 1.85948394 15 3 C15 3.33 15 3.66 15 4 C13.06280622 4.05406122 11.12518079 4.09282025 9.1875 4.125 C8.10855469 4.14820313 7.02960938 4.17140625 5.91796875 4.1953125 C3 4 3 4 0 2 C0 1.34 0 0.68 0 0 Z " fill="#225537" transform="translate(196,309)"/>
<path d="M0 0 C0.75 1.6875 0.75 1.6875 1 4 C-0.75 6.75 -0.75 6.75 -3 9 C-3.99 9 -4.98 9 -6 9 C-4.68775452 5.06326356 -3.08089673 2.77280706 0 0 Z " fill="#0A160D" transform="translate(108,283)"/>
<path d="M0 0 C4 4 8 8 12 12 C11.34 12.66 10.68 13.32 10 14 C10 13.34 10 12.68 10 12 C9.01 11.67 8.02 11.34 7 11 C3 6.54285714 3 6.54285714 3 4 C2.34 4 1.68 4 1 4 C0.67 2.68 0.34 1.36 0 0 Z " fill="#1F5533" transform="translate(398,386)"/>
<path d="M0 0 C-1.7873962 1.33905267 -3.58004953 2.67109066 -5.375 4 C-6.37273437 4.7425 -7.37046875 5.485 -8.3984375 6.25 C-11 8 -11 8 -13 8 C-11.64382219 3.93146657 -9.39752774 2.53149125 -6 0 C-2.625 -1.3125 -2.625 -1.3125 0 0 Z " fill="#1F5636" transform="translate(246,131)"/>
<path d="M0 0 C3.3 0 6.6 0 10 0 C9.01 0.495 9.01 0.495 8 1 C8 1.66 8 2.32 8 3 C8.99 3.33 9.98 3.66 11 4 C3.375 3.125 3.375 3.125 0 2 C0 1.34 0 0.68 0 0 Z " fill="#1E4F33" transform="translate(259,115)"/>
<path d="M0 0 C0.66 0.33 1.32 0.66 2 1 C1.690625 1.598125 1.38125 2.19625 1.0625 2.8125 C-0.10209704 5.08956772 -0.10209704 5.08956772 -1 8 C-0.34 8 0.32 8 1 8 C1 8.66 1 9.32 1 10 C2.65 10 4.3 10 6 10 C6 10.33 6 10.66 6 11 C3.125 11.125 3.125 11.125 0 11 C-2 9 -2 9 -2.25 6.0625 C-2 3 -2 3 0 0 Z " fill="#1F5836" transform="translate(112,441)"/>
<path d="M0 0 C0 0.66 0 1.32 0 2 C-0.69867187 2.13277344 -1.39734375 2.26554687 -2.1171875 2.40234375 C-3.02726563 2.57894531 -3.93734375 2.75554687 -4.875 2.9375 C-5.77992188 3.11152344 -6.68484375 3.28554688 -7.6171875 3.46484375 C-9.99956317 3.89963701 -9.99956317 3.89963701 -12 5 C-12.99 4.34 -13.98 3.68 -15 3 C-5 0 -5 0 0 0 Z " fill="#1C5736" transform="translate(538,408)"/>
<path d="M0 0 C0.66 0.33 1.32 0.66 2 1 C0.63875 2.11375 0.63875 2.11375 -0.75 3.25 C-3.3069423 5.37674584 -5.69110193 7.60229816 -8 10 C-7.52723148 5.74508335 -5.07452523 3.77457155 -2 1 C-1.34 0.67 -0.68 0.34 0 0 Z " fill="#1A5634" transform="translate(230,140)"/>
<path d="M0 0 C1.14926266 0.95421808 2.29430541 1.91352045 3.4375 2.875 C4.07558594 3.40867187 4.71367187 3.94234375 5.37109375 4.4921875 C7 6 7 6 8 8 C6.35 7.67 4.7 7.34 3 7 C3 6.34 3 5.68 3 5 C2.34 5 1.68 5 1 5 C0.67 3.35 0.34 1.7 0 0 Z " fill="#1E603A" transform="translate(368,352)"/>
<path d="M0 0 C2.97 0 5.94 0 9 0 C9 1.65 9 3.3 9 5 C8.01 4.34 7.02 3.68 6 3 C4.0103005 2.60986284 2.00980131 2.26797351 0 2 C0 1.34 0 0.68 0 0 Z " fill="#E4F4EA" transform="translate(173,208)"/>
<path d="M0 0 C0.33 0.66 0.66 1.32 1 2 C-2.17320782 5.53586014 -4.16743695 7.58578031 -9 8 C-6.14723863 5.06799526 -3.34920216 2.35684596 0 0 Z " fill="#1B5532" transform="translate(349,120)"/>
<path d="M0 0 C1.125 1.5625 1.125 1.5625 2 4 C1.125 7.75 1.125 7.75 0 11 C-1.65 11.33 -3.3 11.66 -5 12 C-4.360625 11.13375 -3.72125 10.2675 -3.0625 9.375 C-1.02451704 6.0401188 -0.36566907 3.83952522 0 0 Z " fill="#19502E" transform="translate(125,408)"/>
<path d="M0 0 C0.33 0 0.66 0 1 0 C1 1.65 1 3.3 1 5 C1.66 5 2.32 5 3 5 C3.33 6.98 3.66 8.96 4 11 C0.91910327 8.22719294 -0.68775452 5.93673644 -2 2 C-1.34 2 -0.68 2 0 2 C0 1.34 0 0.68 0 0 Z " fill="#1D5734" transform="translate(412,348)"/>
<path d="M0 0 C4.72463088 0.46319911 8.17057052 1.09891706 12 4 C12 4.66 12 5.32 12 6 C7.96479403 4.41037341 3.98188718 2.71767682 0 1 C0 0.67 0 0.34 0 0 Z " fill="#1C5433" transform="translate(296,322)"/>
<path d="M0 0 C1.31223496 3.93670488 0.24296256 6.12488144 -1 10 C-1.99 10 -2.98 10 -4 10 C-2.99806563 6.20696275 -2.18975773 3.28463659 0 0 Z " fill="#29533B" transform="translate(273,197)"/>
<path d="M0 0 C0 3.10551666 -0.5393715 4.35261084 -2 7 C-2.99 7 -3.98 7 -5 7 C-5.33 7.99 -5.66 8.98 -6 10 C-6.66 9.67 -7.32 9.34 -8 9 C-5.36 6.03 -2.72 3.06 0 0 Z " fill="#1B5734" transform="translate(206,151)"/>
<path d="M0 0 C1.98 0.99 1.98 0.99 4 2 C3.01 2.495 3.01 2.495 2 3 C1.53045739 6.04581269 1.53045739 6.04581269 1.375 9.5625 C1.30023438 10.76003906 1.22546875 11.95757812 1.1484375 13.19140625 C1.09945312 14.11824219 1.05046875 15.04507812 1 16 C0.67 16 0.34 16 0 16 C0 10.72 0 5.44 0 0 Z " fill="#02220A" transform="translate(147,330)"/>
<path d="M0 0 C-3.3 1.32 -6.6 2.64 -10 4 C-10 3.34 -10 2.68 -10 2 C-10.66 1.67 -11.32 1.34 -12 1 C-10.56496445 0.63597631 -9.12683494 0.28413409 -7.6875 -0.0625 C-6.88699219 -0.25972656 -6.08648437 -0.45695312 -5.26171875 -0.66015625 C-3 -1 -3 -1 0 0 Z " fill="#011C06" transform="translate(432,74)"/>
<path d="M0 0 C6.52307692 1.35384615 6.52307692 1.35384615 8.9375 4.625 C9.288125 5.40875 9.63875 6.1925 10 7 C5.56541027 5.6062718 3.12621626 3.39417765 0 0 Z " fill="#1E5A36" transform="translate(405,416)"/>
<path d="M0 0 C0.66 0 1.32 0 2 0 C0.68775452 3.93673644 -0.91910327 6.22719294 -4 9 C-2.94124926 5.59687262 -1.99097846 2.98646769 0 0 Z " fill="#1C5434" transform="translate(89,280)"/>
<path d="M0 0 C3 0 3 0 4.4375 1.25 C4.953125 1.8275 5.46875 2.405 6 3 C6.721875 3.721875 7.44375 4.44375 8.1875 5.1875 C8.785625 5.785625 9.38375 6.38375 10 7 C3.47692308 5.64615385 3.47692308 5.64615385 1.0625 2.375 C0.711875 1.59125 0.36125 0.8075 0 0 Z " fill="#27593C" transform="translate(333,276)"/>
<path d="M0 0 C2.64 0 5.28 0 8 0 C7.01 0.33 6.02 0.66 5 1 C5.33 1.99 5.66 2.98 6 4 C4.02 3.34 2.04 2.68 0 2 C0 1.34 0 0.68 0 0 Z " fill="#204F34" transform="translate(568,389)"/>
<path d="M0 0 C0.66 0.33 1.32 0.66 2 1 C1.34 1.66 0.68 2.32 0 3 C1.32 3.66 2.64 4.32 4 5 C2.02 5.33 0.04 5.66 -2 6 C-2.66 4.68 -3.32 3.36 -4 2 C-2.125 0.9375 -2.125 0.9375 0 0 Z " fill="#19512F" transform="translate(338,90)"/>
<path d="M0 0 C1.65 1.65 3.3 3.3 5 5 C4.01 6.485 4.01 6.485 3 8 C0 3.375 0 3.375 0 0 Z " fill="#196138" transform="translate(390,310)"/>
<path d="M0 0 C0.99 0 1.98 0 3 0 C3 4.29 3 8.58 3 13 C2.67 13 2.34 13 2 13 C1.93941406 12.31292969 1.87882813 11.62585938 1.81640625 10.91796875 C1.73261719 10.01691406 1.64882812 9.11585938 1.5625 8.1875 C1.48128906 7.29417969 1.40007812 6.40085937 1.31640625 5.48046875 C1.06510233 2.87256441 1.06510233 2.87256441 0 0 Z " fill="#46584C" transform="translate(180,275)"/>
<path d="M0 0 C0.66 0.33 1.32 0.66 2 1 C0.38405168 3.04119788 -1.2856382 5.04072937 -3 7 C-3.66 7 -4.32 7 -5 7 C-4.60196439 4.11424181 -4.20990931 3.17810487 -1.9375 1.25 C-1.298125 0.8375 -0.65875 0.425 0 0 Z " fill="#1F5235" transform="translate(296,105)"/>
<path d="M0 0 C2.475 0.495 2.475 0.495 5 1 C5.33 2.32 5.66 3.64 6 5 C2.83884224 3.63016497 2.0072908 3.0109362 0 0 Z " fill="#1A5131" transform="translate(606,413)"/>
<path d="M0 0 C3.625 0.375 3.625 0.375 7 1 C6.67 1.99 6.34 2.98 6 4 C3.36 3.34 0.72 2.68 -2 2 C-1.34 1.34 -0.68 0.68 0 0 Z " fill="#011506" transform="translate(259,117)"/>
</svg>
